<mxfile host="app.diagrams.net" agent="Mozilla/5.0 (Windows NT 10.0; Win64; x64; rv:135.0) Gecko/20100101 Firefox/135.0" version="26.0.16">
  <diagram name="Page-1" id="yVNFl2x9PEVQa132lblZ">
    <mxGraphModel dx="4224" dy="1874" grid="1" gridSize="10" guides="1" tooltips="1" connect="1" arrows="1" fold="1" page="1" pageScale="1" pageWidth="850" pageHeight="1100" math="0" shadow="0">
      <root>
        <mxCell id="0" />
        <mxCell id="1" parent="0" />
        <mxCell id="zgUjJwqVNpDEpkGT-B2m-1" value="&lt;div&gt;&lt;font style=&quot;font-size: 14px;&quot;&gt;Mail Server:&lt;/font&gt;&lt;/div&gt;&lt;div&gt;&lt;font style=&quot;font-size: 14px;&quot;&gt;Handles the sending,&lt;/font&gt;&lt;/div&gt;&lt;div&gt;&lt;font style=&quot;font-size: 14px;&quot;&gt;&amp;nbsp;receiving, and&lt;/font&gt;&lt;/div&gt;&lt;div&gt;&lt;font style=&quot;font-size: 14px;&quot;&gt;&amp;nbsp;storage of email&amp;nbsp;&lt;/font&gt;&lt;/div&gt;&lt;div&gt;&lt;font style=&quot;font-size: 14px;&quot;&gt;messages&lt;/font&gt;&lt;/div&gt;&lt;div&gt;&lt;font style=&quot;font-size: 14px;&quot;&gt;&lt;br&gt;&lt;br&gt;&lt;/font&gt;&lt;/div&gt;" style="fontColor=#0066CC;verticalAlign=top;verticalLabelPosition=bottom;labelPosition=center;align=center;html=1;outlineConnect=0;fillColor=#CCCCCC;strokeColor=#000000;gradientColor=none;gradientDirection=north;strokeWidth=2;shape=mxgraph.networks.mail_server;" vertex="1" parent="1">
          <mxGeometry x="-2527.5" y="480" width="105" height="105" as="geometry" />
        </mxCell>
        <mxCell id="zgUjJwqVNpDEpkGT-B2m-2" value="&lt;div&gt;&lt;font style=&quot;font-size: 14px;&quot;&gt;Web Server: Stores and&lt;/font&gt;&lt;/div&gt;&lt;div&gt;&lt;font size=&quot;3&quot;&gt;delivers web content&lt;/font&gt;&lt;/div&gt;&lt;div&gt;&lt;font size=&quot;3&quot;&gt;to user when request &lt;br&gt;&lt;/font&gt;&lt;/div&gt;&lt;div&gt;&lt;font size=&quot;3&quot;&gt;by their browser&lt;/font&gt;&lt;/div&gt;" style="fontColor=#0066CC;verticalAlign=top;verticalLabelPosition=bottom;labelPosition=center;align=center;html=1;outlineConnect=0;fillColor=#CCCCCC;strokeColor=#000000;gradientColor=none;gradientDirection=north;strokeWidth=2;shape=mxgraph.networks.web_server;" vertex="1" parent="1">
          <mxGeometry x="-2320" y="480" width="105" height="105" as="geometry" />
        </mxCell>
        <mxCell id="zgUjJwqVNpDEpkGT-B2m-3" value="" style="line;strokeWidth=2;direction=south;html=1;" vertex="1" parent="1">
          <mxGeometry x="-2390" y="320" width="10" height="120" as="geometry" />
        </mxCell>
        <mxCell id="zgUjJwqVNpDEpkGT-B2m-4" value="" style="shape=link;html=1;rounded=0;fillColor=#1A1A1A;strokeColor=light-dark(#000000,#FFFFFF);" edge="1" parent="1">
          <mxGeometry width="100" relative="1" as="geometry">
            <mxPoint x="-2520" y="440" as="sourcePoint" />
            <mxPoint x="-2240" y="440" as="targetPoint" />
          </mxGeometry>
        </mxCell>
        <mxCell id="zgUjJwqVNpDEpkGT-B2m-5" value="" style="line;strokeWidth=2;direction=south;html=1;" vertex="1" parent="1">
          <mxGeometry x="-2280" y="440" width="10" height="40" as="geometry" />
        </mxCell>
        <mxCell id="zgUjJwqVNpDEpkGT-B2m-6" value="" style="line;strokeWidth=2;direction=south;html=1;" vertex="1" parent="1">
          <mxGeometry x="-2480" y="440" width="10" height="40" as="geometry" />
        </mxCell>
        <mxCell id="zgUjJwqVNpDEpkGT-B2m-7" value="Switch 1: &lt;br&gt;&lt;div&gt;&lt;font style=&quot;font-size: 14px;&quot;&gt;Connect Server and allow secure &lt;br&gt;&lt;/font&gt;&lt;/div&gt;&lt;div&gt;&lt;font style=&quot;font-size: 14px;&quot;&gt;communication while segmenting&lt;/font&gt;&lt;/div&gt;&lt;div&gt;&lt;font style=&quot;font-size: 14px;&quot;&gt;traffic to improve security&lt;/font&gt;&lt;/div&gt;&lt;div&gt;&lt;font style=&quot;font-size: 14px;&quot;&gt;and performance&lt;/font&gt;&lt;/div&gt;" style="shape=mxgraph.cisco.switches.workgroup_switch;sketch=0;html=1;pointerEvents=1;dashed=0;fillColor=#036897;strokeColor=#000000;strokeWidth=2;verticalLabelPosition=bottom;verticalAlign=top;align=center;outlineConnect=0;" vertex="1" parent="1">
          <mxGeometry x="-2435.5" y="270" width="101" height="50" as="geometry" />
        </mxCell>
        <mxCell id="zgUjJwqVNpDEpkGT-B2m-8" value="" style="line;strokeWidth=2;direction=south;html=1;" vertex="1" parent="1">
          <mxGeometry x="-2390" y="134" width="10" height="136" as="geometry" />
        </mxCell>
        <mxCell id="zgUjJwqVNpDEpkGT-B2m-9" value="&lt;div&gt;&lt;font style=&quot;font-size: 14px;&quot;&gt;Intrusion Detection System 2: &lt;br&gt;&lt;/font&gt;&lt;/div&gt;&lt;div&gt;&lt;font style=&quot;font-size: 14px;&quot;&gt;Detect&amp;nbsp; intrusion and report to the admin&lt;/font&gt;&lt;/div&gt;&lt;div&gt;&lt;br&gt;&lt;/div&gt;" style="shape=mxgraph.cisco.security.guard;sketch=0;html=1;pointerEvents=1;dashed=0;fillColor=#036897;strokeColor=#000000;strokeWidth=2;verticalLabelPosition=bottom;verticalAlign=top;align=center;outlineConnect=0;" vertex="1" parent="1">
          <mxGeometry x="-2067.5" y="300" width="88" height="54" as="geometry" />
        </mxCell>
        <mxCell id="zgUjJwqVNpDEpkGT-B2m-11" value="" style="line;strokeWidth=2;html=1;" vertex="1" parent="1">
          <mxGeometry x="-2347.5" y="102" width="200" height="10" as="geometry" />
        </mxCell>
        <mxCell id="zgUjJwqVNpDEpkGT-B2m-12" value="&lt;div&gt;&lt;font style=&quot;font-size: 14px;&quot;&gt;Firewall:&lt;/font&gt;&lt;span style=&quot;font-size:11.0pt;line-height:115%;&lt;br/&gt;font-family:&amp;quot;Calibri&amp;quot;,sans-serif;mso-fareast-font-family:Calibri;mso-bidi-font-family:&lt;br/&gt;DengXian;mso-ansi-language:EN-US;mso-fareast-language:EN-US;mso-bidi-language:&lt;br/&gt;AR-SA&quot;&gt; Filters incoming/outgoing&amp;nbsp;&lt;/span&gt;&lt;/div&gt;&lt;div&gt;&lt;span style=&quot;font-size:11.0pt;line-height:115%;&lt;br/&gt;font-family:&amp;quot;Calibri&amp;quot;,sans-serif;mso-fareast-font-family:Calibri;mso-bidi-font-family:&lt;br/&gt;DengXian;mso-ansi-language:EN-US;mso-fareast-language:EN-US;mso-bidi-language:&lt;br/&gt;AR-SA&quot;&gt;traffic based on predefined rules&lt;/span&gt;&lt;/div&gt;" style="shape=mxgraph.cisco.security.firewall;sketch=0;html=1;pointerEvents=1;dashed=0;fillColor=#036897;strokeColor=#000000;strokeWidth=2;verticalLabelPosition=bottom;verticalAlign=top;align=center;outlineConnect=0;" vertex="1" parent="1">
          <mxGeometry x="-2147.5" y="40" width="80" height="120" as="geometry" />
        </mxCell>
        <mxCell id="zgUjJwqVNpDEpkGT-B2m-14" value="" style="line;strokeWidth=2;html=1;" vertex="1" parent="1">
          <mxGeometry x="-2067.5" y="102" width="180" height="10" as="geometry" />
        </mxCell>
        <mxCell id="zgUjJwqVNpDEpkGT-B2m-17" value="" style="html=1;outlineConnect=0;fillColor=#CCCCCC;strokeColor=#000000;gradientColor=none;gradientDirection=north;strokeWidth=2;shape=mxgraph.networks.comm_link_edge;html=1;rounded=0;entryX=0.071;entryY=1;entryDx=0;entryDy=0;entryPerimeter=0;" edge="1" parent="1">
          <mxGeometry width="100" height="100" relative="1" as="geometry">
            <mxPoint x="-1530" y="90" as="sourcePoint" />
            <mxPoint x="-1372.56" y="-43" as="targetPoint" />
            <Array as="points">
              <mxPoint x="-1402.5" y="17" />
            </Array>
          </mxGeometry>
        </mxCell>
        <mxCell id="zgUjJwqVNpDEpkGT-B2m-16" value="&lt;font size=&quot;3&quot; face=&quot;Comic Sans MS&quot;&gt;Internnet&lt;/font&gt;" style="html=1;outlineConnect=0;fillColor=#CCCCCC;strokeColor=#000000;gradientColor=none;gradientDirection=north;strokeWidth=2;shape=mxgraph.networks.cloud;fontColor=#ffffff;" vertex="1" parent="1">
          <mxGeometry x="-1380" y="-120" width="140" height="90" as="geometry" />
        </mxCell>
        <mxCell id="zgUjJwqVNpDEpkGT-B2m-19" value="" style="line;strokeWidth=2;direction=south;html=1;rotation=-30;" vertex="1" parent="1">
          <mxGeometry x="-2067.5" y="150" width="10" height="160" as="geometry" />
        </mxCell>
        <mxCell id="zgUjJwqVNpDEpkGT-B2m-23" value="&lt;div&gt;&lt;font face=&quot;Helvetica&quot; style=&quot;font-size: 14px;&quot;&gt;ISP:&lt;/font&gt;&lt;/div&gt;&lt;div&gt;&lt;font face=&quot;Helvetica&quot; style=&quot;font-size: 14px;&quot;&gt;&amp;nbsp;Provide Internet access&lt;/font&gt;&lt;/div&gt;" style="shape=mxgraph.cisco.routers.router;sketch=0;html=1;pointerEvents=1;dashed=0;fillColor=#036897;strokeColor=#000000;strokeWidth=2;verticalLabelPosition=bottom;verticalAlign=top;align=center;outlineConnect=0;" vertex="1" parent="1">
          <mxGeometry x="-1640" y="66.25" width="108" height="81.5" as="geometry" />
        </mxCell>
        <mxCell id="zgUjJwqVNpDEpkGT-B2m-24" value="&lt;div&gt;&lt;font style=&quot;font-size: 14px;&quot;&gt;Intrusion Detection System 1:&lt;/font&gt;&lt;/div&gt;&lt;div&gt;&lt;font style=&quot;font-size: 14px;&quot;&gt;Detect&amp;nbsp; intrusion and report to the admin&lt;/font&gt;&lt;/div&gt;&lt;div&gt;&lt;font size=&quot;3&quot;&gt;&lt;br&gt;&lt;/font&gt;&lt;/div&gt;" style="shape=mxgraph.cisco.security.guard;sketch=0;html=1;pointerEvents=1;dashed=0;fillColor=#036897;strokeColor=#000000;strokeWidth=2;verticalLabelPosition=bottom;verticalAlign=top;align=center;outlineConnect=0;" vertex="1" parent="1">
          <mxGeometry x="-2425.5" y="90" width="88" height="54" as="geometry" />
        </mxCell>
        <mxCell id="zgUjJwqVNpDEpkGT-B2m-27" value="&lt;div&gt;Switch 2:&lt;/div&gt;&lt;div&gt;&lt;div&gt;&lt;font style=&quot;font-size: 14px;&quot;&gt;Connect devices on the&amp;nbsp;&lt;/font&gt;&lt;/div&gt;&lt;div&gt;&lt;font style=&quot;font-size: 14px;&quot;&gt;same network&lt;/font&gt;&lt;/div&gt;&lt;div&gt;&lt;font style=&quot;font-size: 14px;&quot;&gt;allowing them to communicate with&amp;nbsp;&lt;/font&gt;&lt;/div&gt;&lt;div&gt;&lt;font style=&quot;font-size: 14px;&quot;&gt;each other &lt;/font&gt;&lt;/div&gt;&lt;br&gt;&lt;/div&gt;" style="shape=mxgraph.cisco.switches.workgroup_switch;sketch=0;html=1;pointerEvents=1;dashed=0;fillColor=#036897;strokeColor=#000000;strokeWidth=2;verticalLabelPosition=bottom;verticalAlign=top;align=center;outlineConnect=0;" vertex="1" parent="1">
          <mxGeometry x="-1950" y="490" width="101" height="50" as="geometry" />
        </mxCell>
        <mxCell id="zgUjJwqVNpDEpkGT-B2m-28" value="" style="line;strokeWidth=2;direction=south;html=1;rotation=-30;" vertex="1" parent="1">
          <mxGeometry x="-1960" y="340" width="10" height="160" as="geometry" />
        </mxCell>
        <mxCell id="zgUjJwqVNpDEpkGT-B2m-29" value="&lt;div&gt;&lt;font size=&quot;3&quot;&gt;PC 1:&lt;/font&gt;&lt;/div&gt;&lt;div&gt;&lt;font size=&quot;3&quot;&gt;User computer&lt;/font&gt;&lt;/div&gt;" style="shape=mxgraph.cisco.computers_and_peripherals.pc;sketch=0;html=1;pointerEvents=1;dashed=0;fillColor=#036897;strokeColor=#000000;strokeWidth=2;verticalLabelPosition=bottom;verticalAlign=top;align=center;outlineConnect=0;shadow=1;" vertex="1" parent="1">
          <mxGeometry x="-2080" y="634" width="78" height="70" as="geometry" />
        </mxCell>
        <mxCell id="zgUjJwqVNpDEpkGT-B2m-30" value="&lt;div&gt;&lt;font size=&quot;3&quot;&gt;PC 2:&lt;/font&gt;&lt;/div&gt;&lt;div&gt;&lt;font size=&quot;3&quot;&gt;User computer&lt;/font&gt;&lt;/div&gt;" style="shape=mxgraph.cisco.computers_and_peripherals.pc;sketch=0;html=1;pointerEvents=1;dashed=0;fillColor=#036897;strokeColor=#000000;strokeWidth=2;verticalLabelPosition=bottom;verticalAlign=top;align=center;outlineConnect=0;" vertex="1" parent="1">
          <mxGeometry x="-1944" y="660" width="78" height="70" as="geometry" />
        </mxCell>
        <mxCell id="zgUjJwqVNpDEpkGT-B2m-31" value="&lt;div&gt;&lt;font size=&quot;3&quot;&gt;PC 3:&lt;/font&gt;&lt;/div&gt;&lt;div&gt;&lt;font size=&quot;3&quot;&gt;User computer&lt;/font&gt;&lt;/div&gt;" style="shape=mxgraph.cisco.computers_and_peripherals.workstation;sketch=0;html=1;pointerEvents=1;dashed=0;fillColor=#036897;strokeColor=#000000;strokeWidth=2;verticalLabelPosition=bottom;verticalAlign=top;align=center;outlineConnect=0;" vertex="1" parent="1">
          <mxGeometry x="-1830" y="638" width="83" height="62" as="geometry" />
        </mxCell>
        <mxCell id="zgUjJwqVNpDEpkGT-B2m-32" value="&lt;div&gt;&lt;font size=&quot;3&quot;&gt;Printer Station:&lt;/font&gt;&lt;/div&gt;&lt;div&gt;&lt;font size=&quot;3&quot;&gt;Share network&lt;/font&gt;&lt;/div&gt;&lt;div&gt;&lt;font size=&quot;3&quot;&gt;&amp;nbsp;resource&lt;/font&gt;&lt;/div&gt;" style="shape=mxgraph.cisco.computers_and_peripherals.printer;sketch=0;html=1;pointerEvents=1;dashed=0;fillColor=#036897;strokeColor=#000000;strokeWidth=2;verticalLabelPosition=bottom;verticalAlign=top;align=center;outlineConnect=0;" vertex="1" parent="1">
          <mxGeometry x="-1760" y="570" width="91" height="34" as="geometry" />
        </mxCell>
        <mxCell id="zgUjJwqVNpDEpkGT-B2m-34" value="&lt;div&gt;&lt;font size=&quot;3&quot;&gt;Intrusion Prevention System: &lt;br&gt;&lt;/font&gt;&lt;/div&gt;&lt;div&gt;&lt;div&gt;&lt;font size=&quot;3&quot;&gt;Take automated action in&amp;nbsp;&lt;/font&gt;&lt;/div&gt;&lt;div&gt;&lt;font size=&quot;3&quot;&gt;response to a detected threat.&lt;/font&gt;&lt;/div&gt;&lt;div&gt;&lt;font size=&quot;3&quot;&gt;It can close off an IP address,&lt;/font&gt;&lt;/div&gt;&lt;div&gt;&lt;font size=&quot;3&quot;&gt;limit access or block an &lt;br&gt;&lt;/font&gt;&lt;/div&gt;&lt;div&gt;&lt;font size=&quot;3&quot;&gt;Account.&lt;/font&gt;&lt;/div&gt;&lt;br&gt;&lt;/div&gt;" style="shape=mxgraph.cisco.security.guard;sketch=0;html=1;pointerEvents=1;dashed=0;fillColor=#036897;strokeColor=#000000;strokeWidth=2;verticalLabelPosition=bottom;verticalAlign=top;align=center;outlineConnect=0;" vertex="1" parent="1">
          <mxGeometry x="-1900" y="80" width="88" height="54" as="geometry" />
        </mxCell>
        <mxCell id="zgUjJwqVNpDEpkGT-B2m-35" value="" style="line;strokeWidth=2;html=1;" vertex="1" parent="1">
          <mxGeometry x="-1820" y="102" width="180" height="10" as="geometry" />
        </mxCell>
        <mxCell id="zgUjJwqVNpDEpkGT-B2m-37" value="" style="line;strokeWidth=2;direction=south;html=1;" vertex="1" parent="1">
          <mxGeometry x="-1910" y="540" width="10" height="120" as="geometry" />
        </mxCell>
        <mxCell id="zgUjJwqVNpDEpkGT-B2m-38" value="" style="line;strokeWidth=2;direction=south;html=1;rotation=35;" vertex="1" parent="1">
          <mxGeometry x="-1989.5" y="530" width="10" height="120" as="geometry" />
        </mxCell>
        <mxCell id="zgUjJwqVNpDEpkGT-B2m-39" value="" style="line;strokeWidth=2;direction=south;html=1;rotation=-30;" vertex="1" parent="1">
          <mxGeometry x="-1849" y="530" width="10" height="120" as="geometry" />
        </mxCell>
        <mxCell id="zgUjJwqVNpDEpkGT-B2m-40" value="" style="line;strokeWidth=2;direction=south;html=1;rotation=-60;" vertex="1" parent="1">
          <mxGeometry x="-1812" y="490" width="10" height="120" as="geometry" />
        </mxCell>
        <mxCell id="zgUjJwqVNpDEpkGT-B2m-46" value="DMZ" style="text;html=1;align=center;verticalAlign=middle;whiteSpace=wrap;rounded=0;" vertex="1" parent="1">
          <mxGeometry x="-2411.5" y="460" width="60" height="30" as="geometry" />
        </mxCell>
        <mxCell id="zgUjJwqVNpDEpkGT-B2m-51" value="Table" style="shape=table;startSize=30;container=1;collapsible=0;childLayout=tableLayout;strokeColor=default;fontSize=16;" vertex="1" parent="1">
          <mxGeometry x="-2550" y="840" width="940" height="510" as="geometry" />
        </mxCell>
        <mxCell id="zgUjJwqVNpDEpkGT-B2m-52" value="" style="shape=tableRow;horizontal=0;startSize=0;swimlaneHead=0;swimlaneBody=0;strokeColor=inherit;top=0;left=0;bottom=0;right=0;collapsible=0;dropTarget=0;fillColor=none;points=[[0,0.5],[1,0.5]];portConstraint=eastwest;fontSize=16;" vertex="1" parent="zgUjJwqVNpDEpkGT-B2m-51">
          <mxGeometry y="30" width="940" height="160" as="geometry" />
        </mxCell>
        <mxCell id="zgUjJwqVNpDEpkGT-B2m-53" value="&lt;font style=&quot;font-size: 32px;&quot;&gt;&lt;font face=&quot;Helvetica&quot;&gt;&lt;span style=&quot;line-height: 115%;&quot;&gt;Points of failure&lt;/span&gt;&lt;/font&gt;&lt;span style=&quot;line-height: 115%;&quot;&gt; &lt;/span&gt;&lt;/font&gt;" style="shape=partialRectangle;html=1;whiteSpace=wrap;connectable=0;strokeColor=inherit;overflow=hidden;fillColor=none;top=0;left=0;bottom=0;right=0;pointerEvents=1;fontSize=16;" vertex="1" parent="zgUjJwqVNpDEpkGT-B2m-52">
          <mxGeometry width="313" height="160" as="geometry">
            <mxRectangle width="313" height="160" as="alternateBounds" />
          </mxGeometry>
        </mxCell>
        <mxCell id="zgUjJwqVNpDEpkGT-B2m-54" value="&lt;font face=&quot;Helvetica&quot; style=&quot;font-size: 32px;&quot;&gt;Issue&lt;/font&gt;" style="shape=partialRectangle;html=1;whiteSpace=wrap;connectable=0;strokeColor=inherit;overflow=hidden;fillColor=none;top=0;left=0;bottom=0;right=0;pointerEvents=1;fontSize=16;" vertex="1" parent="zgUjJwqVNpDEpkGT-B2m-52">
          <mxGeometry x="313" width="314" height="160" as="geometry">
            <mxRectangle width="314" height="160" as="alternateBounds" />
          </mxGeometry>
        </mxCell>
        <mxCell id="zgUjJwqVNpDEpkGT-B2m-55" value="&lt;div align=&quot;center&quot;&gt;&lt;font style=&quot;font-size: 32px;&quot; face=&quot;Helvetica&quot;&gt;&lt;span style=&quot;line-height: 115%;&quot;&gt;Suggest mitigations &lt;/span&gt;&lt;/font&gt;&lt;/div&gt;" style="shape=partialRectangle;html=1;whiteSpace=wrap;connectable=0;strokeColor=inherit;overflow=hidden;fillColor=none;top=0;left=0;bottom=0;right=0;pointerEvents=1;fontSize=16;align=center;" vertex="1" parent="zgUjJwqVNpDEpkGT-B2m-52">
          <mxGeometry x="627" width="313" height="160" as="geometry">
            <mxRectangle width="313" height="160" as="alternateBounds" />
          </mxGeometry>
        </mxCell>
        <mxCell id="zgUjJwqVNpDEpkGT-B2m-56" value="" style="shape=tableRow;horizontal=0;startSize=0;swimlaneHead=0;swimlaneBody=0;strokeColor=inherit;top=0;left=0;bottom=0;right=0;collapsible=0;dropTarget=0;fillColor=none;points=[[0,0.5],[1,0.5]];portConstraint=eastwest;fontSize=16;" vertex="1" parent="zgUjJwqVNpDEpkGT-B2m-51">
          <mxGeometry y="190" width="940" height="160" as="geometry" />
        </mxCell>
        <mxCell id="zgUjJwqVNpDEpkGT-B2m-57" value="Single Firewall Failure" style="shape=partialRectangle;html=1;whiteSpace=wrap;connectable=0;strokeColor=inherit;overflow=hidden;fillColor=none;top=0;left=0;bottom=0;right=0;pointerEvents=1;fontSize=16;" vertex="1" parent="zgUjJwqVNpDEpkGT-B2m-56">
          <mxGeometry width="313" height="160" as="geometry">
            <mxRectangle width="313" height="160" as="alternateBounds" />
          </mxGeometry>
        </mxCell>
        <mxCell id="zgUjJwqVNpDEpkGT-B2m-58" value=" If the firewall fails, the entire network may be exposed to threats or lose connectivity." style="shape=partialRectangle;html=1;whiteSpace=wrap;connectable=0;strokeColor=inherit;overflow=hidden;fillColor=none;top=0;left=0;bottom=0;right=0;pointerEvents=1;fontSize=16;" vertex="1" parent="zgUjJwqVNpDEpkGT-B2m-56">
          <mxGeometry x="313" width="314" height="160" as="geometry">
            <mxRectangle width="314" height="160" as="alternateBounds" />
          </mxGeometry>
        </mxCell>
        <mxCell id="zgUjJwqVNpDEpkGT-B2m-59" value="Implement a &lt;span data-end=&quot;259&quot; data-start=&quot;237&quot;&gt;redundant firewall&lt;/span&gt; in a high-availability (HA) configuration to ensure continuous protection" style="shape=partialRectangle;html=1;whiteSpace=wrap;connectable=0;strokeColor=inherit;overflow=hidden;fillColor=none;top=0;left=0;bottom=0;right=0;pointerEvents=1;fontSize=16;" vertex="1" parent="zgUjJwqVNpDEpkGT-B2m-56">
          <mxGeometry x="627" width="313" height="160" as="geometry">
            <mxRectangle width="313" height="160" as="alternateBounds" />
          </mxGeometry>
        </mxCell>
        <mxCell id="zgUjJwqVNpDEpkGT-B2m-60" value="" style="shape=tableRow;horizontal=0;startSize=0;swimlaneHead=0;swimlaneBody=0;strokeColor=inherit;top=0;left=0;bottom=0;right=0;collapsible=0;dropTarget=0;fillColor=none;points=[[0,0.5],[1,0.5]];portConstraint=eastwest;fontSize=16;" vertex="1" parent="zgUjJwqVNpDEpkGT-B2m-51">
          <mxGeometry y="350" width="940" height="160" as="geometry" />
        </mxCell>
        <mxCell id="zgUjJwqVNpDEpkGT-B2m-61" value="Single ISP Connection" style="shape=partialRectangle;html=1;whiteSpace=wrap;connectable=0;strokeColor=inherit;overflow=hidden;fillColor=none;top=0;left=0;bottom=0;right=0;pointerEvents=1;fontSize=16;" vertex="1" parent="zgUjJwqVNpDEpkGT-B2m-60">
          <mxGeometry width="313" height="160" as="geometry">
            <mxRectangle width="313" height="160" as="alternateBounds" />
          </mxGeometry>
        </mxCell>
        <mxCell id="zgUjJwqVNpDEpkGT-B2m-62" value="If the ISP connection goes down, the entire network loses internet access." style="shape=partialRectangle;html=1;whiteSpace=wrap;connectable=0;strokeColor=inherit;overflow=hidden;fillColor=none;top=0;left=0;bottom=0;right=0;pointerEvents=1;fontSize=16;" vertex="1" parent="zgUjJwqVNpDEpkGT-B2m-60">
          <mxGeometry x="313" width="314" height="160" as="geometry">
            <mxRectangle width="314" height="160" as="alternateBounds" />
          </mxGeometry>
        </mxCell>
        <mxCell id="zgUjJwqVNpDEpkGT-B2m-63" value="&lt;br&gt;Use a &lt;span data-end=&quot;528&quot; data-start=&quot;489&quot;&gt;secondary ISP (failover connection)&lt;/span&gt; or load balancing between two ISPs for redundancy.&lt;div&gt;&lt;br/&gt;&lt;/div&gt;" style="shape=partialRectangle;html=1;whiteSpace=wrap;connectable=0;strokeColor=inherit;overflow=hidden;fillColor=none;top=0;left=0;bottom=0;right=0;pointerEvents=1;fontSize=16;" vertex="1" parent="zgUjJwqVNpDEpkGT-B2m-60">
          <mxGeometry x="627" width="313" height="160" as="geometry">
            <mxRectangle width="313" height="160" as="alternateBounds" />
          </mxGeometry>
        </mxCell>
        <mxCell id="zgUjJwqVNpDEpkGT-B2m-64" value="" style="shape=table;startSize=30;container=1;collapsible=0;childLayout=tableLayout;strokeColor=default;fontSize=16;" vertex="1" parent="1">
          <mxGeometry x="-2550" y="1350" width="940" height="500" as="geometry" />
        </mxCell>
        <mxCell id="zgUjJwqVNpDEpkGT-B2m-65" value="" style="shape=tableRow;horizontal=0;startSize=0;swimlaneHead=0;swimlaneBody=0;strokeColor=inherit;top=0;left=0;bottom=0;right=0;collapsible=0;dropTarget=0;fillColor=none;points=[[0,0.5],[1,0.5]];portConstraint=eastwest;fontSize=16;" vertex="1" parent="zgUjJwqVNpDEpkGT-B2m-64">
          <mxGeometry y="30" width="940" height="156" as="geometry" />
        </mxCell>
        <mxCell id="zgUjJwqVNpDEpkGT-B2m-66" value="Intrusion Detection/Prevention System (IDS/IPS) Failure" style="shape=partialRectangle;html=1;whiteSpace=wrap;connectable=0;strokeColor=inherit;overflow=hidden;fillColor=none;top=0;left=0;bottom=0;right=0;pointerEvents=1;fontSize=16;" vertex="1" parent="zgUjJwqVNpDEpkGT-B2m-65">
          <mxGeometry width="313" height="156" as="geometry">
            <mxRectangle width="313" height="156" as="alternateBounds" />
          </mxGeometry>
        </mxCell>
        <mxCell id="zgUjJwqVNpDEpkGT-B2m-67" value="If the IDS/IPS fails, malicious traffic may go undetected" style="shape=partialRectangle;html=1;whiteSpace=wrap;connectable=0;strokeColor=inherit;overflow=hidden;fillColor=none;top=0;left=0;bottom=0;right=0;pointerEvents=1;fontSize=16;" vertex="1" parent="zgUjJwqVNpDEpkGT-B2m-65">
          <mxGeometry x="313" width="314" height="156" as="geometry">
            <mxRectangle width="314" height="156" as="alternateBounds" />
          </mxGeometry>
        </mxCell>
        <mxCell id="zgUjJwqVNpDEpkGT-B2m-68" value="&lt;br&gt;Deploy &lt;span data-end=&quot;781&quot; data-start=&quot;753&quot;&gt;multiple IDS/IPS systems&lt;/span&gt; at different network points and ensure real-time logging to external monitoring systems.&lt;div&gt;&lt;br/&gt;&lt;/div&gt;" style="shape=partialRectangle;html=1;whiteSpace=wrap;connectable=0;strokeColor=inherit;overflow=hidden;fillColor=none;top=0;left=0;bottom=0;right=0;pointerEvents=1;fontSize=16;" vertex="1" parent="zgUjJwqVNpDEpkGT-B2m-65">
          <mxGeometry x="627" width="313" height="156" as="geometry">
            <mxRectangle width="313" height="156" as="alternateBounds" />
          </mxGeometry>
        </mxCell>
        <mxCell id="zgUjJwqVNpDEpkGT-B2m-69" value="" style="shape=tableRow;horizontal=0;startSize=0;swimlaneHead=0;swimlaneBody=0;strokeColor=inherit;top=0;left=0;bottom=0;right=0;collapsible=0;dropTarget=0;fillColor=none;points=[[0,0.5],[1,0.5]];portConstraint=eastwest;fontSize=16;" vertex="1" parent="zgUjJwqVNpDEpkGT-B2m-64">
          <mxGeometry y="186" width="940" height="158" as="geometry" />
        </mxCell>
        <mxCell id="zgUjJwqVNpDEpkGT-B2m-70" value="Single Switch Failure" style="shape=partialRectangle;html=1;whiteSpace=wrap;connectable=0;strokeColor=inherit;overflow=hidden;fillColor=none;top=0;left=0;bottom=0;right=0;pointerEvents=1;fontSize=16;" vertex="1" parent="zgUjJwqVNpDEpkGT-B2m-69">
          <mxGeometry width="313" height="158" as="geometry">
            <mxRectangle width="313" height="158" as="alternateBounds" />
          </mxGeometry>
        </mxCell>
        <mxCell id="zgUjJwqVNpDEpkGT-B2m-71" value="If a switch fails, connected devices lose communication." style="shape=partialRectangle;html=1;whiteSpace=wrap;connectable=0;strokeColor=inherit;overflow=hidden;fillColor=none;top=0;left=0;bottom=0;right=0;pointerEvents=1;fontSize=16;" vertex="1" parent="zgUjJwqVNpDEpkGT-B2m-69">
          <mxGeometry x="313" width="314" height="158" as="geometry">
            <mxRectangle width="314" height="158" as="alternateBounds" />
          </mxGeometry>
        </mxCell>
        <mxCell id="zgUjJwqVNpDEpkGT-B2m-72" value="Deploy &lt;span data-end=&quot;1310&quot; data-start=&quot;1288&quot;&gt;redundant switches&lt;/span&gt; and configure &lt;span data-is-only-node=&quot;&quot; data-end=&quot;1357&quot; data-start=&quot;1325&quot;&gt;Spanning Tree Protocol (STP)&lt;/span&gt; to prevent network loops." style="shape=partialRectangle;html=1;whiteSpace=wrap;connectable=0;strokeColor=inherit;overflow=hidden;fillColor=none;top=0;left=0;bottom=0;right=0;pointerEvents=1;fontSize=16;" vertex="1" parent="zgUjJwqVNpDEpkGT-B2m-69">
          <mxGeometry x="627" width="313" height="158" as="geometry">
            <mxRectangle width="313" height="158" as="alternateBounds" />
          </mxGeometry>
        </mxCell>
        <mxCell id="zgUjJwqVNpDEpkGT-B2m-73" value="" style="shape=tableRow;horizontal=0;startSize=0;swimlaneHead=0;swimlaneBody=0;strokeColor=inherit;top=0;left=0;bottom=0;right=0;collapsible=0;dropTarget=0;fillColor=none;points=[[0,0.5],[1,0.5]];portConstraint=eastwest;fontSize=16;" vertex="1" parent="zgUjJwqVNpDEpkGT-B2m-64">
          <mxGeometry y="344" width="940" height="156" as="geometry" />
        </mxCell>
        <mxCell id="zgUjJwqVNpDEpkGT-B2m-74" value="Power Outage Impacting Network Devices" style="shape=partialRectangle;html=1;whiteSpace=wrap;connectable=0;strokeColor=inherit;overflow=hidden;fillColor=none;top=0;left=0;bottom=0;right=0;pointerEvents=1;fontSize=16;" vertex="1" parent="zgUjJwqVNpDEpkGT-B2m-73">
          <mxGeometry width="313" height="156" as="geometry">
            <mxRectangle width="313" height="156" as="alternateBounds" />
          </mxGeometry>
        </mxCell>
        <mxCell id="zgUjJwqVNpDEpkGT-B2m-75" value="&#xa;A power failure can disable the entire network.&#xa;&#xa;" style="shape=partialRectangle;html=1;whiteSpace=wrap;connectable=0;strokeColor=inherit;overflow=hidden;fillColor=none;top=0;left=0;bottom=0;right=0;pointerEvents=1;fontSize=16;" vertex="1" parent="zgUjJwqVNpDEpkGT-B2m-73">
          <mxGeometry x="313" width="314" height="156" as="geometry">
            <mxRectangle width="314" height="156" as="alternateBounds" />
          </mxGeometry>
        </mxCell>
        <mxCell id="zgUjJwqVNpDEpkGT-B2m-76" value="&lt;span data-end=&quot;1831&quot; data-start=&quot;1816&quot;&gt;:&lt;/span&gt; Install &lt;span data-end=&quot;1880&quot; data-start=&quot;1840&quot;&gt;Uninterruptible Power Supplies (UPS)&lt;/span&gt; for critical devices (firewall, switches, IDS/IPS, and servers). Consider a &lt;span data-is-only-node=&quot;&quot; data-end=&quot;1977&quot; data-start=&quot;1957&quot;&gt;backup generator&lt;/span&gt; for long-term outages." style="shape=partialRectangle;html=1;whiteSpace=wrap;connectable=0;strokeColor=inherit;overflow=hidden;fillColor=none;top=0;left=0;bottom=0;right=0;pointerEvents=1;fontSize=16;" vertex="1" parent="zgUjJwqVNpDEpkGT-B2m-73">
          <mxGeometry x="627" width="313" height="156" as="geometry">
            <mxRectangle width="313" height="156" as="alternateBounds" />
          </mxGeometry>
        </mxCell>
      </root>
    </mxGraphModel>
  </diagram>
</mxfile>
